<?xml version="1.0" encoding="utf-8"?>
<!-- Generator: Adobe Illustrator 19.2.0, SVG Export Plug-In . SVG Version: 6.00 Build 0)  -->
<svg version="1.1" id="Lager_1" xmlns="http://www.w3.org/2000/svg" xmlns:xlink="http://www.w3.org/1999/xlink" x="0px" y="0px"
	 viewBox="0 0 31 995" style="enable-background:new 0 0 31 995;" xml:space="preserve">
<style type="text/css">
	.st0{fill:#E52325;}
	.st1{fill:#FFFFFF;}
	.st2{fill:#991445;}
	.st3{fill:#EE7123;}
	.st4{fill:#2199C0;}
	.st5{fill:#FBBA0F;}
	.st6{fill:#1E1E1E;}
</style>
<g>
	<path class="st0" d="M30.1,14.6C30.1,6.5,23.6,0,15.5,0S0.9,6.5,0.9,14.6c0,7,4.9,12.8,11.4,14.2l3.2,6.2l3.2-6.2
		C25.2,27.4,30.1,21.6,30.1,14.6z"/>
	<path class="st1" d="M23.8,18l-0.4-3.3c-0.1-0.7-0.7-1.3-1.5-1.3h-0.1l-0.6-3.9c-0.2-1.1-1.2-1.9-2.3-1.9h-7.3
		c-1.1,0-2.1,0.9-2.2,2L9,13.4h0c-0.7,0-1.4,0.6-1.5,1.3L7.2,18c-0.1,0.7,0.4,1.3,1.2,1.3h1v1.1c0,0.7,0.6,1.3,1.3,1.3h0.1
		c0.7,0,1.3-0.6,1.3-1.3v-1.1h7v1.1c0,0.7,0.6,1.3,1.3,1.3h0.1c0.7,0,1.3-0.6,1.3-1.3v-1.1h1C23.4,19.3,23.9,18.7,23.8,18z
		 M14.2,13.4c0.5-0.9,1.4-1.4,2.4-1.4s2,0.6,2.4,1.4H14.2z M11,9.7c0-0.3,0.4-0.6,0.7-0.6h7.3c0.3,0,0.7,0.3,0.7,0.6l0.6,3.7h-0.6
		c-0.5-1.2-1.7-2-3.1-2c-1.4,0-2.6,0.8-3.1,2h-3L11,9.7z"/>
</g>
<g>
	<path class="st2" d="M30.1,54.6c0-8.1-6.5-14.6-14.6-14.6S0.9,46.5,0.9,54.6c0,7,4.9,12.8,11.4,14.2l3.2,6.2l3.2-6.2
		C25.2,67.4,30.1,61.6,30.1,54.6z"/>
	<path class="st1" d="M23.8,58l-0.4-3.3c-0.1-0.7-0.7-1.3-1.5-1.3h-0.1l-0.6-3.9c-0.2-1.1-1.2-1.9-2.3-1.9h-7.3
		c-1.1,0-2.1,0.9-2.2,2L9,53.4h0c-0.7,0-1.4,0.6-1.5,1.3L7.2,58c-0.1,0.7,0.4,1.3,1.2,1.3h1v1.1c0,0.7,0.6,1.3,1.3,1.3h0.1
		c0.7,0,1.3-0.6,1.3-1.3v-1.1h7v1.1c0,0.7,0.6,1.3,1.3,1.3h0.1c0.7,0,1.3-0.6,1.3-1.3v-1.1h1C23.4,59.3,23.9,58.7,23.8,58z
		 M14.2,53.4c0.5-0.9,1.4-1.4,2.4-1.4s2,0.6,2.4,1.4H14.2z M11,49.7c0-0.3,0.4-0.6,0.7-0.6h7.3c0.3,0,0.7,0.3,0.7,0.6l0.6,3.7h-0.6
		c-0.5-1.2-1.7-2-3.1-2c-1.4,0-2.6,0.8-3.1,2h-3L11,49.7z"/>
</g>
<g>
	<path class="st3" d="M30.1,94.6c0-8.1-6.5-14.6-14.6-14.6S0.9,86.5,0.9,94.6c0,7,4.9,12.8,11.4,14.2l3.2,6.2l3.2-6.2
		C25.2,107.4,30.1,101.6,30.1,94.6z"/>
	<path class="st1" d="M23.8,98l-0.4-3.3c-0.1-0.7-0.7-1.3-1.5-1.3h-0.1l-0.6-3.9c-0.2-1.1-1.2-1.9-2.3-1.9h-7.3
		c-1.1,0-2.1,0.9-2.2,2L9,93.4h0c-0.7,0-1.4,0.6-1.5,1.3L7.2,98c-0.1,0.7,0.4,1.3,1.2,1.3h1v1.1c0,0.7,0.6,1.3,1.3,1.3h0.1
		c0.7,0,1.3-0.6,1.3-1.3v-1.1h7v1.1c0,0.7,0.6,1.3,1.3,1.3h0.1c0.7,0,1.3-0.6,1.3-1.3v-1.1h1C23.4,99.3,23.9,98.7,23.8,98z
		 M14.2,93.4c0.5-0.9,1.4-1.4,2.4-1.4s2,0.6,2.4,1.4H14.2z M11,89.7c0-0.3,0.4-0.6,0.7-0.6h7.3c0.3,0,0.7,0.3,0.7,0.6l0.6,3.7h-0.6
		c-0.5-1.2-1.7-2-3.1-2c-1.4,0-2.6,0.8-3.1,2h-3L11,89.7z"/>
</g>
<g>
	<path class="st4" d="M30.1,134.6c0-8.1-6.5-14.6-14.6-14.6s-14.6,6.5-14.6,14.6c0,7,4.9,12.8,11.4,14.2l3.2,6.2l3.2-6.2
		C25.2,147.4,30.1,141.6,30.1,134.6z"/>
	<path class="st1" d="M23.8,138l-0.4-3.3c-0.1-0.7-0.7-1.3-1.5-1.3h-0.1l-0.6-3.9c-0.2-1.1-1.2-1.9-2.3-1.9h-7.3
		c-1.1,0-2.1,0.9-2.2,2L9,133.4h0c-0.7,0-1.4,0.6-1.5,1.3L7.2,138c-0.1,0.7,0.4,1.3,1.2,1.3h1v1.1c0,0.7,0.6,1.3,1.3,1.3h0.1
		c0.7,0,1.3-0.6,1.3-1.3v-1.1h7v1.1c0,0.7,0.6,1.3,1.3,1.3h0.1c0.7,0,1.3-0.6,1.3-1.3v-1.1h1C23.4,139.3,23.9,138.7,23.8,138z
		 M14.2,133.4c0.5-0.9,1.4-1.4,2.4-1.4s2,0.6,2.4,1.4H14.2z M11,129.7c0-0.3,0.4-0.6,0.7-0.6h7.3c0.3,0,0.7,0.3,0.7,0.6l0.6,3.7
		h-0.6c-0.5-1.2-1.7-2-3.1-2c-1.4,0-2.6,0.8-3.1,2h-3L11,129.7z"/>
</g>
<g>
	<path class="st5" d="M30.1,174.6c0-8.1-6.5-14.6-14.6-14.6s-14.6,6.5-14.6,14.6c0,7,4.9,12.8,11.4,14.2l3.2,6.2l3.2-6.2
		C25.2,187.4,30.1,181.6,30.1,174.6z"/>
	<path class="st1" d="M23.8,178l-0.4-3.3c-0.1-0.7-0.7-1.3-1.5-1.3h-0.1l-0.6-3.9c-0.2-1.1-1.2-1.9-2.3-1.9h-7.3
		c-1.1,0-2.1,0.9-2.2,2L9,173.4h0c-0.7,0-1.4,0.6-1.5,1.3L7.2,178c-0.1,0.7,0.4,1.3,1.2,1.3h1v1.1c0,0.7,0.6,1.3,1.3,1.3h0.1
		c0.7,0,1.3-0.6,1.3-1.3v-1.1h7v1.1c0,0.7,0.6,1.3,1.3,1.3h0.1c0.7,0,1.3-0.6,1.3-1.3v-1.1h1C23.4,179.3,23.9,178.7,23.8,178z
		 M14.2,173.4c0.5-0.9,1.4-1.4,2.4-1.4s2,0.6,2.4,1.4H14.2z M11,169.7c0-0.3,0.4-0.6,0.7-0.6h7.3c0.3,0,0.7,0.3,0.7,0.6l0.6,3.7
		h-0.6c-0.5-1.2-1.7-2-3.1-2c-1.4,0-2.6,0.8-3.1,2h-3L11,169.7z"/>
</g>
<g>
	<path class="st0" d="M30.1,214.6c0-8.1-6.5-14.6-14.6-14.6s-14.6,6.5-14.6,14.6c0,7,4.9,12.8,11.4,14.2l3.2,6.2l3.2-6.2
		C25.2,227.4,30.1,221.6,30.1,214.6z"/>
	<path class="st1" d="M22.2,222.5c-0.5-1.6-0.9-3.2-1.4-4.8c-0.1-0.3-0.2-0.6-0.3-1c0.5-0.1,0.8-0.6,0.8-1.1v-5c0,0,0-0.1,0-0.1
		c0-0.1,0-0.1,0-0.2v-3.2c0-1.6-1.3-2.9-2.9-2.9h-5.9c-1.6,0-2.9,1.3-2.9,2.9v3.2c0,0.1,0,0.2,0,0.2c0,0,0,0.1,0,0.1v5
		c0,0.5,0.3,1,0.8,1.1c-0.2,0.6-0.3,1.2-0.5,1.8c-0.4,1.3-0.8,2.7-1.2,4c-0.1,0.3,0.1,0.6,0.4,0.7c0,0,0.1,0,0.1,0
		c0.2,0,0.4-0.2,0.5-0.4c0.1-0.4,0.2-0.8,0.4-1.2h10.6c0.1,0.4,0.2,0.8,0.4,1.2c0.1,0.2,0.3,0.4,0.5,0.4c0,0,0.1,0,0.1,0
		C22.1,223.1,22.2,222.8,22.2,222.5z M19.4,216.8c0.1,0.3,0.2,0.6,0.3,0.9h-8.3c0.1-0.3,0.2-0.6,0.3-0.9H19.4z M12.7,214.8
		c0-0.5,0.4-1,1-1s1,0.4,1,1c0,0.5-0.4,1-1,1S12.7,215.4,12.7,214.8z M16.4,214.8c0-0.5,0.4-1,1-1c0.5,0,1,0.4,1,1c0,0.5-0.4,1-1,1
		C16.8,215.8,16.4,215.4,16.4,214.8z M11,209.5L11,209.5v-1.1c0-1.6,1.3-2.9,2.9-2.9h3.2c1.6,0,2.9,1.3,2.9,2.9v0.4v0.7v2.6
		c0,0.6-0.5,1.1-1.1,1.1h-6.6c-0.6,0-1.1-0.5-1.1-1.1V209.5z M10.5,220.5c0.2-0.6,0.3-1.1,0.5-1.7c0,0,0,0,0-0.1H20
		c0.2,0.6,0.3,1.2,0.5,1.8H10.5z"/>
</g>
<g>
	<path class="st2" d="M30.1,254.6c0-8.1-6.5-14.6-14.6-14.6s-14.6,6.5-14.6,14.6c0,7,4.9,12.8,11.4,14.2l3.2,6.2l3.2-6.2
		C25.2,267.4,30.1,261.6,30.1,254.6z"/>
	<path class="st1" d="M22.2,262.5c-0.5-1.6-0.9-3.2-1.4-4.8c-0.1-0.3-0.2-0.6-0.3-1c0.5-0.1,0.8-0.6,0.8-1.1v-5c0,0,0-0.1,0-0.1
		c0-0.1,0-0.1,0-0.2v-3.2c0-1.6-1.3-2.9-2.9-2.9h-5.9c-1.6,0-2.9,1.3-2.9,2.9v3.2c0,0.1,0,0.2,0,0.2c0,0,0,0.1,0,0.1v5
		c0,0.5,0.3,1,0.8,1.1c-0.2,0.6-0.3,1.2-0.5,1.8c-0.4,1.3-0.8,2.7-1.2,4c-0.1,0.3,0.1,0.6,0.4,0.7c0,0,0.1,0,0.1,0
		c0.2,0,0.4-0.2,0.5-0.4c0.1-0.4,0.2-0.8,0.4-1.2h10.6c0.1,0.4,0.2,0.8,0.4,1.2c0.1,0.2,0.3,0.4,0.5,0.4c0,0,0.1,0,0.1,0
		C22.1,263.1,22.2,262.8,22.2,262.5z M19.4,256.8c0.1,0.3,0.2,0.6,0.3,0.9h-8.3c0.1-0.3,0.2-0.6,0.3-0.9H19.4z M12.7,254.8
		c0-0.5,0.4-1,1-1s1,0.4,1,1c0,0.5-0.4,1-1,1S12.7,255.4,12.7,254.8z M16.4,254.8c0-0.5,0.4-1,1-1c0.5,0,1,0.4,1,1c0,0.5-0.4,1-1,1
		C16.8,255.8,16.4,255.4,16.4,254.8z M11,249.5L11,249.5v-1.1c0-1.6,1.3-2.9,2.9-2.9h3.2c1.6,0,2.9,1.3,2.9,2.9v0.4v0.7v2.6
		c0,0.6-0.5,1.1-1.1,1.1h-6.6c-0.6,0-1.1-0.5-1.1-1.1V249.5z M10.5,260.5c0.2-0.6,0.3-1.1,0.5-1.7c0,0,0,0,0-0.1H20
		c0.2,0.6,0.3,1.2,0.5,1.8H10.5z"/>
</g>
<g>
	<path class="st3" d="M30.1,294.6c0-8.1-6.5-14.6-14.6-14.6s-14.6,6.5-14.6,14.6c0,7,4.9,12.8,11.4,14.2l3.2,6.2l3.2-6.2
		C25.2,307.4,30.1,301.6,30.1,294.6z"/>
	<path class="st1" d="M22.2,302.5c-0.5-1.6-0.9-3.2-1.4-4.8c-0.1-0.3-0.2-0.6-0.3-1c0.5-0.1,0.8-0.6,0.8-1.1v-5c0,0,0-0.1,0-0.1
		c0-0.1,0-0.1,0-0.2v-3.2c0-1.6-1.3-2.9-2.9-2.9h-5.9c-1.6,0-2.9,1.3-2.9,2.9v3.2c0,0.1,0,0.2,0,0.2c0,0,0,0.1,0,0.1v5
		c0,0.5,0.3,1,0.8,1.1c-0.2,0.6-0.3,1.2-0.5,1.8c-0.4,1.3-0.8,2.7-1.2,4c-0.1,0.3,0.1,0.6,0.4,0.7c0,0,0.1,0,0.1,0
		c0.2,0,0.4-0.2,0.5-0.4c0.1-0.4,0.2-0.8,0.4-1.2h10.6c0.1,0.4,0.2,0.8,0.4,1.2c0.1,0.2,0.3,0.4,0.5,0.4c0,0,0.1,0,0.1,0
		C22.1,303.1,22.2,302.8,22.2,302.5z M19.4,296.8c0.1,0.3,0.2,0.6,0.3,0.9h-8.3c0.1-0.3,0.2-0.6,0.3-0.9H19.4z M12.7,294.8
		c0-0.5,0.4-1,1-1s1,0.4,1,1s-0.4,1-1,1S12.7,295.4,12.7,294.8z M16.4,294.8c0-0.5,0.4-1,1-1c0.5,0,1,0.4,1,1s-0.4,1-1,1
		C16.8,295.8,16.4,295.4,16.4,294.8z M11,289.5L11,289.5v-1.1c0-1.6,1.3-2.9,2.9-2.9h3.2c1.6,0,2.9,1.3,2.9,2.9v0.4v0.7v2.6
		c0,0.6-0.5,1.1-1.1,1.1h-6.6c-0.6,0-1.1-0.5-1.1-1.1V289.5z M10.5,300.5c0.2-0.6,0.3-1.1,0.5-1.7c0,0,0,0,0-0.1H20
		c0.2,0.6,0.3,1.2,0.5,1.8H10.5z"/>
</g>
<g>
	<path class="st4" d="M30.1,334.6c0-8.1-6.5-14.6-14.6-14.6s-14.6,6.5-14.6,14.6c0,7,4.9,12.8,11.4,14.2l3.2,6.2l3.2-6.2
		C25.2,347.4,30.1,341.6,30.1,334.6z"/>
	<path class="st1" d="M22.2,342.5c-0.5-1.6-0.9-3.2-1.4-4.8c-0.1-0.3-0.2-0.6-0.3-1c0.5-0.1,0.8-0.6,0.8-1.1v-5c0,0,0-0.1,0-0.1
		c0-0.1,0-0.1,0-0.2v-3.2c0-1.6-1.3-2.9-2.9-2.9h-5.9c-1.6,0-2.9,1.3-2.9,2.9v3.2c0,0.1,0,0.2,0,0.2c0,0,0,0.1,0,0.1v5
		c0,0.5,0.3,1,0.8,1.1c-0.2,0.6-0.3,1.2-0.5,1.8c-0.4,1.3-0.8,2.7-1.2,4c-0.1,0.3,0.1,0.6,0.4,0.7c0,0,0.1,0,0.1,0
		c0.2,0,0.4-0.2,0.5-0.4c0.1-0.4,0.2-0.8,0.4-1.2h10.6c0.1,0.4,0.2,0.8,0.4,1.2c0.1,0.2,0.3,0.4,0.5,0.4c0,0,0.1,0,0.1,0
		C22.1,343.1,22.2,342.8,22.2,342.5z M19.4,336.8c0.1,0.3,0.2,0.6,0.3,0.9h-8.3c0.1-0.3,0.2-0.6,0.3-0.9H19.4z M12.7,334.8
		c0-0.5,0.4-1,1-1s1,0.4,1,1s-0.4,1-1,1S12.7,335.4,12.7,334.8z M16.4,334.8c0-0.5,0.4-1,1-1c0.5,0,1,0.4,1,1s-0.4,1-1,1
		C16.8,335.8,16.4,335.4,16.4,334.8z M11,329.5L11,329.5v-1.1c0-1.6,1.3-2.9,2.9-2.9h3.2c1.6,0,2.9,1.3,2.9,2.9v0.4v0.7v2.6
		c0,0.6-0.5,1.1-1.1,1.1h-6.6c-0.6,0-1.1-0.5-1.1-1.1V329.5z M10.5,340.5c0.2-0.6,0.3-1.1,0.5-1.7c0,0,0,0,0-0.1H20
		c0.2,0.6,0.3,1.2,0.5,1.8H10.5z"/>
</g>
<g>
	<path class="st5" d="M30.1,374.6c0-8.1-6.5-14.6-14.6-14.6s-14.6,6.5-14.6,14.6c0,7,4.9,12.8,11.4,14.2l3.2,6.2l3.2-6.2
		C25.2,387.4,30.1,381.6,30.1,374.6z"/>
	<path class="st1" d="M22.2,382.5c-0.5-1.6-0.9-3.2-1.4-4.8c-0.1-0.3-0.2-0.6-0.3-1c0.5-0.1,0.8-0.6,0.8-1.1v-5c0,0,0-0.1,0-0.1
		c0-0.1,0-0.1,0-0.2v-3.2c0-1.6-1.3-2.9-2.9-2.9h-5.9c-1.6,0-2.9,1.3-2.9,2.9v3.2c0,0.1,0,0.2,0,0.2c0,0,0,0.1,0,0.1v5
		c0,0.5,0.3,1,0.8,1.1c-0.2,0.6-0.3,1.2-0.5,1.8c-0.4,1.3-0.8,2.7-1.2,4c-0.1,0.3,0.1,0.6,0.4,0.7c0,0,0.1,0,0.1,0
		c0.2,0,0.4-0.2,0.5-0.4c0.1-0.4,0.2-0.8,0.4-1.2h10.6c0.1,0.4,0.2,0.8,0.4,1.2c0.1,0.2,0.3,0.4,0.5,0.4c0,0,0.1,0,0.1,0
		C22.1,383.1,22.2,382.8,22.2,382.5z M19.4,376.8c0.1,0.3,0.2,0.6,0.3,0.9h-8.3c0.1-0.3,0.2-0.6,0.3-0.9H19.4z M12.7,374.8
		c0-0.5,0.4-1,1-1s1,0.4,1,1s-0.4,1-1,1S12.7,375.4,12.7,374.8z M16.4,374.8c0-0.5,0.4-1,1-1c0.5,0,1,0.4,1,1s-0.4,1-1,1
		C16.8,375.8,16.4,375.4,16.4,374.8z M11,369.5L11,369.5v-1.1c0-1.6,1.3-2.9,2.9-2.9h3.2c1.6,0,2.9,1.3,2.9,2.9v0.4v0.7v2.6
		c0,0.6-0.5,1.1-1.1,1.1h-6.6c-0.6,0-1.1-0.5-1.1-1.1V369.5z M10.5,380.5c0.2-0.6,0.3-1.1,0.5-1.7c0,0,0,0,0-0.1H20
		c0.2,0.6,0.3,1.2,0.5,1.8H10.5z"/>
</g>
<g>
	<path class="st0" d="M30.1,414.6c0-8.1-6.5-14.6-14.6-14.6s-14.6,6.5-14.6,14.6c0,7,4.9,12.8,11.4,14.2l3.2,6.2l3.2-6.2
		C25.2,427.4,30.1,421.6,30.1,414.6z"/>
	<path class="st1" d="M20.5,406.8h-10c-0.6,0-1.1,0.5-1.1,1.1v2.4c0,0.6,0.5,1.1,1,1.1c0,0,0.1,0,0.1,0h10c0,0,0.1,0,0.1,0
		c0.6,0,1-0.5,1-1.1V408C21.6,407.3,21.1,406.8,20.5,406.8z"/>
	<path class="st1" d="M10.2,412C10.2,412,10.2,412,10.2,412l-0.1,9.2c0,0.6,0.5,1.1,1.1,1.1h8.5c0.6,0,1.1-0.5,1.1-1.1V412
		c0,0-0.1,0-0.1,0H10.2z M17.8,414.8c-0.5,0.9-0.8,1.7-1,2.3c-0.2,0.6-0.3,1.3-0.3,2.2c0,0.5-0.1,0.9-0.2,1.1
		c-0.1,0.2-0.3,0.3-0.6,0.3c-0.2,0-0.4-0.1-0.5-0.2c-0.1-0.1-0.2-0.3-0.2-0.5c0-0.2,0.1-0.5,0.2-0.8c0.1-0.3,0.4-0.9,0.8-1.6
		l1.2-2.1h-2c-0.5,0-0.9,0-1,0.1c-0.1,0.1-0.3,0.2-0.5,0.5c-0.1,0.2-0.2,0.3-0.3,0.3c-0.1,0-0.2-0.1-0.2-0.2c0-0.1,0.1-0.5,0.2-1.1
		c0.1-0.6,0.2-1,0.3-1.1c0.1-0.1,0.1-0.2,0.2-0.2c0.1,0,0.1,0.1,0.2,0.2c0,0.1,0.1,0.1,0.2,0.2c0.1,0,0.4,0.1,0.8,0.1
		c0.5,0,0.7,0,0.8,0H18C18,414.3,17.9,414.5,17.8,414.8z"/>
</g>
<g>
	<path class="st2" d="M30.1,454.6c0-8.1-6.5-14.6-14.6-14.6s-14.6,6.5-14.6,14.6c0,7,4.9,12.8,11.4,14.2l3.2,6.2l3.2-6.2
		C25.2,467.4,30.1,461.6,30.1,454.6z"/>
	<path class="st1" d="M20.5,446.8h-10c-0.6,0-1.1,0.5-1.1,1.1v2.4c0,0.6,0.5,1.1,1,1.1c0,0,0.1,0,0.1,0h10c0,0,0.1,0,0.1,0
		c0.6,0,1-0.5,1-1.1V448C21.6,447.3,21.1,446.8,20.5,446.8z"/>
	<path class="st1" d="M10.2,452C10.2,452,10.2,452,10.2,452l-0.1,9.2c0,0.6,0.5,1.1,1.1,1.1h8.5c0.6,0,1.1-0.5,1.1-1.1V452
		c0,0-0.1,0-0.1,0H10.2z M17.8,454.8c-0.5,0.9-0.8,1.7-1,2.3c-0.2,0.6-0.3,1.3-0.3,2.2c0,0.5-0.1,0.9-0.2,1.1
		c-0.1,0.2-0.3,0.3-0.6,0.3c-0.2,0-0.4-0.1-0.5-0.2c-0.1-0.1-0.2-0.3-0.2-0.5c0-0.2,0.1-0.5,0.2-0.8c0.1-0.3,0.4-0.9,0.8-1.6
		l1.2-2.1h-2c-0.5,0-0.9,0-1,0.1c-0.1,0.1-0.3,0.2-0.5,0.5c-0.1,0.2-0.2,0.3-0.3,0.3c-0.1,0-0.2-0.1-0.2-0.2c0-0.1,0.1-0.5,0.2-1.1
		c0.1-0.6,0.2-1,0.3-1.1c0.1-0.1,0.1-0.2,0.2-0.2c0.1,0,0.1,0.1,0.2,0.2c0,0.1,0.1,0.1,0.2,0.2c0.1,0,0.4,0.1,0.8,0.1
		c0.5,0,0.7,0,0.8,0H18C18,454.3,17.9,454.5,17.8,454.8z"/>
</g>
<g>
	<path class="st3" d="M30.1,494.6c0-8.1-6.5-14.6-14.6-14.6s-14.6,6.5-14.6,14.6c0,7,4.9,12.8,11.4,14.2l3.2,6.2l3.2-6.2
		C25.2,507.4,30.1,501.6,30.1,494.6z"/>
	<path class="st1" d="M20.5,486.8h-10c-0.6,0-1.1,0.5-1.1,1.1v2.4c0,0.6,0.5,1.1,1,1.1c0,0,0.1,0,0.1,0h10c0,0,0.1,0,0.1,0
		c0.6,0,1-0.5,1-1.1V488C21.6,487.3,21.1,486.8,20.5,486.8z"/>
	<path class="st1" d="M10.2,492C10.2,492,10.2,492,10.2,492l-0.1,9.2c0,0.6,0.5,1.1,1.1,1.1h8.5c0.6,0,1.1-0.5,1.1-1.1V492
		c0,0-0.1,0-0.1,0H10.2z M17.8,494.8c-0.5,0.9-0.8,1.7-1,2.3c-0.2,0.6-0.3,1.3-0.3,2.2c0,0.5-0.1,0.9-0.2,1.1
		c-0.1,0.2-0.3,0.3-0.6,0.3c-0.2,0-0.4-0.1-0.5-0.2c-0.1-0.1-0.2-0.3-0.2-0.5c0-0.2,0.1-0.5,0.2-0.8c0.1-0.3,0.4-0.9,0.8-1.6
		l1.2-2.1h-2c-0.5,0-0.9,0-1,0.1c-0.1,0.1-0.3,0.2-0.5,0.5c-0.1,0.2-0.2,0.3-0.3,0.3c-0.1,0-0.2-0.1-0.2-0.2c0-0.1,0.1-0.5,0.2-1.1
		c0.1-0.6,0.2-1,0.3-1.1c0.1-0.1,0.1-0.2,0.2-0.2c0.1,0,0.1,0.1,0.2,0.2c0,0.1,0.1,0.1,0.2,0.2c0.1,0,0.4,0.1,0.8,0.1
		c0.5,0,0.7,0,0.8,0H18C18,494.3,17.9,494.5,17.8,494.8z"/>
</g>
<g>
	<path class="st4" d="M30.1,534.6c0-8.1-6.5-14.6-14.6-14.6s-14.6,6.5-14.6,14.6c0,7,4.9,12.8,11.4,14.2l3.2,6.2l3.2-6.2
		C25.2,547.4,30.1,541.6,30.1,534.6z"/>
	<path class="st1" d="M20.5,526.8h-10c-0.6,0-1.1,0.5-1.1,1.1v2.4c0,0.6,0.5,1.1,1,1.1c0,0,0.1,0,0.1,0h10c0,0,0.1,0,0.1,0
		c0.6,0,1-0.5,1-1.1V528C21.6,527.3,21.1,526.8,20.5,526.8z"/>
	<path class="st1" d="M10.2,532C10.2,532,10.2,532,10.2,532l-0.1,9.2c0,0.6,0.5,1.1,1.1,1.1h8.5c0.6,0,1.1-0.5,1.1-1.1V532
		c0,0-0.1,0-0.1,0H10.2z M17.8,534.8c-0.5,0.9-0.8,1.7-1,2.3c-0.2,0.6-0.3,1.3-0.3,2.2c0,0.5-0.1,0.9-0.2,1.1
		c-0.1,0.2-0.3,0.3-0.6,0.3c-0.2,0-0.4-0.1-0.5-0.2c-0.1-0.1-0.2-0.3-0.2-0.5c0-0.2,0.1-0.5,0.2-0.8c0.1-0.3,0.4-0.9,0.8-1.6
		l1.2-2.1h-2c-0.5,0-0.9,0-1,0.1c-0.1,0.1-0.3,0.2-0.5,0.5c-0.1,0.2-0.2,0.3-0.3,0.3c-0.1,0-0.2-0.1-0.2-0.2c0-0.1,0.1-0.5,0.2-1.1
		c0.1-0.6,0.2-1,0.3-1.1c0.1-0.1,0.1-0.2,0.2-0.2c0.1,0,0.1,0.1,0.2,0.2c0,0.1,0.1,0.1,0.2,0.2c0.1,0,0.4,0.1,0.8,0.1
		c0.5,0,0.7,0,0.8,0H18C18,534.3,17.9,534.5,17.8,534.8z"/>
</g>
<g>
	<path class="st5" d="M30.1,574.6c0-8.1-6.5-14.6-14.6-14.6s-14.6,6.5-14.6,14.6c0,7,4.9,12.8,11.4,14.2l3.2,6.2l3.2-6.2
		C25.2,587.4,30.1,581.6,30.1,574.6z"/>
	<path class="st1" d="M20.5,566.8h-10c-0.6,0-1.1,0.5-1.1,1.1v2.4c0,0.6,0.5,1.1,1,1.1c0,0,0.1,0,0.1,0h10c0,0,0.1,0,0.1,0
		c0.6,0,1-0.5,1-1.1V568C21.6,567.3,21.1,566.8,20.5,566.8z"/>
	<path class="st1" d="M10.2,572C10.2,572,10.2,572,10.2,572l-0.1,9.2c0,0.6,0.5,1.1,1.1,1.1h8.5c0.6,0,1.1-0.5,1.1-1.1V572
		c0,0-0.1,0-0.1,0H10.2z M17.8,574.8c-0.5,0.9-0.8,1.7-1,2.3c-0.2,0.6-0.3,1.3-0.3,2.2c0,0.5-0.1,0.9-0.2,1.1
		c-0.1,0.2-0.3,0.3-0.6,0.3c-0.2,0-0.4-0.1-0.5-0.2c-0.1-0.1-0.2-0.3-0.2-0.5c0-0.2,0.1-0.5,0.2-0.8c0.1-0.3,0.4-0.9,0.8-1.6
		l1.2-2.1h-2c-0.5,0-0.9,0-1,0.1c-0.1,0.1-0.3,0.2-0.5,0.5c-0.1,0.2-0.2,0.3-0.3,0.3c-0.1,0-0.2-0.1-0.2-0.2c0-0.1,0.1-0.5,0.2-1.1
		c0.1-0.6,0.2-1,0.3-1.1c0.1-0.1,0.1-0.2,0.2-0.2c0.1,0,0.1,0.1,0.2,0.2c0,0.1,0.1,0.1,0.2,0.2c0.1,0,0.4,0.1,0.8,0.1
		c0.5,0,0.7,0,0.8,0H18C18,574.3,17.9,574.5,17.8,574.8z"/>
</g>
<g>
	<path class="st0" d="M30.1,614.6c0-8.1-6.5-14.6-14.6-14.6s-14.6,6.5-14.6,14.6c0,7,4.9,12.8,11.4,14.2l3.2,6.2l3.2-6.2
		C25.2,627.4,30.1,621.6,30.1,614.6z"/>
	<polygon class="st1" points="15.5,606.8 8.3,611 15.6,615.4 22.8,611 	"/>
	<polygon class="st1" points="8,618.2 15.2,622.4 15.2,615.8 8,611.4 	"/>
	<polygon class="st1" points="15.8,615.9 15.8,622.4 23,618.2 23,611.5 	"/>
</g>
<g>
	<path class="st2" d="M30.1,654.6c0-8.1-6.5-14.6-14.6-14.6s-14.6,6.5-14.6,14.6c0,7,4.9,12.8,11.4,14.2l3.2,6.2l3.2-6.2
		C25.2,667.4,30.1,661.6,30.1,654.6z"/>
	<polygon class="st1" points="15.5,646.8 8.3,651 15.6,655.4 22.8,651 	"/>
	<polygon class="st1" points="8,658.2 15.2,662.4 15.2,655.8 8,651.4 	"/>
	<polygon class="st1" points="15.8,655.9 15.8,662.4 23,658.2 23,651.5 	"/>
</g>
<g>
	<path class="st3" d="M30.1,694.6c0-8.1-6.5-14.6-14.6-14.6s-14.6,6.5-14.6,14.6c0,7,4.9,12.8,11.4,14.2l3.2,6.2l3.2-6.2
		C25.2,707.4,30.1,701.6,30.1,694.6z"/>
	<polygon class="st1" points="15.5,686.8 8.3,691 15.6,695.4 22.8,691 	"/>
	<polygon class="st1" points="8,698.2 15.2,702.4 15.2,695.8 8,691.4 	"/>
	<polygon class="st1" points="15.8,695.9 15.8,702.4 23,698.2 23,691.5 	"/>
</g>
<g>
	<path class="st4" d="M30.1,734.6c0-8.1-6.5-14.6-14.6-14.6s-14.6,6.5-14.6,14.6c0,7,4.9,12.8,11.4,14.2l3.2,6.2l3.2-6.2
		C25.2,747.4,30.1,741.6,30.1,734.6z"/>
	<polygon class="st1" points="15.5,726.8 8.3,731 15.6,735.4 22.8,731 	"/>
	<polygon class="st1" points="8,738.2 15.2,742.4 15.2,735.8 8,731.4 	"/>
	<polygon class="st1" points="15.8,735.9 15.8,742.4 23,738.2 23,731.5 	"/>
</g>
<g>
	<path class="st5" d="M30.1,774.6c0-8.1-6.5-14.6-14.6-14.6s-14.6,6.5-14.6,14.6c0,7,4.9,12.8,11.4,14.2l3.2,6.2l3.2-6.2
		C25.2,787.4,30.1,781.6,30.1,774.6z"/>
	<polygon class="st1" points="15.5,766.8 8.3,771 15.6,775.4 22.8,771 	"/>
	<polygon class="st1" points="8,778.2 15.2,782.4 15.2,775.8 8,771.4 	"/>
	<polygon class="st1" points="15.8,775.9 15.8,782.4 23,778.2 23,771.5 	"/>
</g>
<g>
	<path class="st6" d="M30.1,854.6c0-8.1-6.5-14.6-14.6-14.6s-14.6,6.5-14.6,14.6c0,7,4.9,12.8,11.4,14.2l3.2,6.2l3.2-6.2
		C25.2,867.4,30.1,861.6,30.1,854.6z"/>
	<path class="st1" d="M23.8,858l-0.4-3.3c-0.1-0.7-0.7-1.3-1.5-1.3h-0.1l-0.6-3.9c-0.2-1.1-1.2-1.9-2.3-1.9h-7.3
		c-1.1,0-2.1,0.9-2.2,2L9,853.4h0c-0.7,0-1.4,0.6-1.5,1.3L7.2,858c-0.1,0.7,0.4,1.3,1.2,1.3h1v1.1c0,0.7,0.6,1.3,1.3,1.3h0.1
		c0.7,0,1.3-0.6,1.3-1.3v-1.1h7v1.1c0,0.7,0.6,1.3,1.3,1.3h0.1c0.7,0,1.3-0.6,1.3-1.3v-1.1h1C23.4,859.3,23.9,858.7,23.8,858z
		 M14.2,853.4c0.5-0.9,1.4-1.4,2.4-1.4s2,0.6,2.4,1.4H14.2z M11,849.7c0-0.3,0.4-0.6,0.7-0.6h7.3c0.3,0,0.7,0.3,0.7,0.6l0.6,3.7
		h-0.6c-0.5-1.2-1.7-2-3.1-2c-1.4,0-2.6,0.8-3.1,2h-3L11,849.7z"/>
</g>
<g>
	<path class="st6" d="M30.1,894.6c0-8.1-6.5-14.6-14.6-14.6s-14.6,6.5-14.6,14.6c0,7,4.9,12.8,11.4,14.2l3.2,6.2l3.2-6.2
		C25.2,907.4,30.1,901.6,30.1,894.6z"/>
	<path class="st1" d="M22.2,902.5c-0.5-1.6-0.9-3.2-1.4-4.8c-0.1-0.3-0.2-0.6-0.3-1c0.5-0.1,0.8-0.6,0.8-1.1v-5c0,0,0-0.1,0-0.1
		c0-0.1,0-0.1,0-0.2v-3.2c0-1.6-1.3-2.9-2.9-2.9h-5.9c-1.6,0-2.9,1.3-2.9,2.9v3.2c0,0.1,0,0.2,0,0.2c0,0,0,0.1,0,0.1v5
		c0,0.5,0.3,1,0.8,1.1c-0.2,0.6-0.3,1.2-0.5,1.8c-0.4,1.3-0.8,2.7-1.2,4c-0.1,0.3,0.1,0.6,0.4,0.7c0,0,0.1,0,0.1,0
		c0.2,0,0.4-0.2,0.5-0.4c0.1-0.4,0.2-0.8,0.4-1.2h10.6c0.1,0.4,0.2,0.8,0.4,1.2c0.1,0.2,0.3,0.4,0.5,0.4c0,0,0.1,0,0.1,0
		C22.1,903.1,22.2,902.8,22.2,902.5z M19.4,896.8c0.1,0.3,0.2,0.6,0.3,0.9h-8.3c0.1-0.3,0.2-0.6,0.3-0.9H19.4z M12.7,894.8
		c0-0.5,0.4-1,1-1s1,0.4,1,1c0,0.5-0.4,1-1,1S12.7,895.4,12.7,894.8z M16.4,894.8c0-0.5,0.4-1,1-1c0.5,0,1,0.4,1,1c0,0.5-0.4,1-1,1
		C16.8,895.8,16.4,895.4,16.4,894.8z M11,889.5L11,889.5v-1.1c0-1.6,1.3-2.9,2.9-2.9h3.2c1.6,0,2.9,1.3,2.9,2.9v0.4v0.7v2.6
		c0,0.6-0.5,1.1-1.1,1.1h-6.6c-0.6,0-1.1-0.5-1.1-1.1V889.5z M10.5,900.5c0.2-0.6,0.3-1.1,0.5-1.7c0,0,0,0,0-0.1H20
		c0.2,0.6,0.3,1.2,0.5,1.8H10.5z"/>
</g>
<g>
	<path class="st6" d="M30.1,934.6c0-8.1-6.5-14.6-14.6-14.6s-14.6,6.5-14.6,14.6c0,7,4.9,12.8,11.4,14.2l3.2,6.2l3.2-6.2
		C25.2,947.4,30.1,941.6,30.1,934.6z"/>
	<path class="st1" d="M20.5,926.8h-10c-0.6,0-1.1,0.5-1.1,1.1v2.4c0,0.6,0.5,1.1,1,1.1c0,0,0.1,0,0.1,0h10c0,0,0.1,0,0.1,0
		c0.6,0,1-0.5,1-1.1V928C21.6,927.3,21.1,926.8,20.5,926.8z"/>
	<path class="st1" d="M10.2,932C10.2,932,10.2,932,10.2,932l-0.1,9.2c0,0.6,0.5,1.1,1.1,1.1h8.5c0.6,0,1.1-0.5,1.1-1.1V932
		c0,0-0.1,0-0.1,0H10.2z M17.8,934.8c-0.5,0.9-0.8,1.7-1,2.3c-0.2,0.6-0.3,1.3-0.3,2.2c0,0.5-0.1,0.9-0.2,1.1
		c-0.1,0.2-0.3,0.3-0.6,0.3c-0.2,0-0.4-0.1-0.5-0.2c-0.1-0.1-0.2-0.3-0.2-0.5c0-0.2,0.1-0.5,0.2-0.8c0.1-0.3,0.4-0.9,0.8-1.6
		l1.2-2.1h-2c-0.5,0-0.9,0-1,0.1c-0.1,0.1-0.3,0.2-0.5,0.5c-0.1,0.2-0.2,0.3-0.3,0.3c-0.1,0-0.2-0.1-0.2-0.2c0-0.1,0.1-0.5,0.2-1.1
		c0.1-0.6,0.2-1,0.3-1.1c0.1-0.1,0.1-0.2,0.2-0.2c0.1,0,0.1,0.1,0.2,0.2c0,0.1,0.1,0.1,0.2,0.2c0.1,0,0.4,0.1,0.8,0.1
		c0.5,0,0.7,0,0.8,0H18C18,934.3,17.9,934.5,17.8,934.8z"/>
</g>
<g>
	<path class="st6" d="M30.1,974.6c0-8.1-6.5-14.6-14.6-14.6s-14.6,6.5-14.6,14.6c0,7,4.9,12.8,11.4,14.2l3.2,6.2l3.2-6.2
		C25.2,987.4,30.1,981.6,30.1,974.6z"/>
	<polygon class="st1" points="15.5,966.8 8.3,971 15.6,975.4 22.8,971 	"/>
	<polygon class="st1" points="8,978.2 15.2,982.4 15.2,975.8 8,971.4 	"/>
	<polygon class="st1" points="15.8,975.9 15.8,982.4 23,978.2 23,971.5 	"/>
</g>
<path class="st6" d="M30.1,814.6c0-8.1-6.5-14.6-14.6-14.6s-14.6,6.5-14.6,14.6c0,7,4.9,12.8,11.4,14.2l3.2,6.2l3.2-6.2
	C25.2,827.4,30.1,821.6,30.1,814.6z"/>
<g>
	<path class="st1" d="M7.3,814.1L5.4,814c0.2-0.6,0.6-1.1,1.1-1.5c0.5-0.4,1.2-0.5,2.1-0.5c0.9,0,1.6,0.2,2,0.6
		c0.4,0.4,0.7,0.8,0.7,1.4c0,0.2,0,0.4-0.1,0.7c0,0.2-0.2,0.9-0.4,1.9c-0.2,0.9-0.3,1.4-0.3,1.8c0,0.3,0.1,0.6,0.2,1H8.9
		c-0.1-0.3-0.1-0.5-0.1-0.8c-0.3,0.3-0.6,0.6-1,0.7c-0.4,0.2-0.7,0.3-1.1,0.3c-0.6,0-1.1-0.2-1.5-0.6c-0.4-0.4-0.6-0.9-0.6-1.5
		c0-0.7,0.2-1.2,0.6-1.6s1.2-0.7,2.3-0.7c0.9-0.1,1.5-0.2,1.8-0.3c0.1-0.3,0.1-0.5,0.1-0.6c0-0.2-0.1-0.4-0.2-0.5
		c-0.2-0.1-0.4-0.2-0.7-0.2c-0.3,0-0.6,0.1-0.8,0.2C7.5,813.7,7.3,813.9,7.3,814.1z M9.1,815.9c-0.1,0-0.3,0.1-0.5,0.1
		c-1,0.1-1.6,0.3-1.9,0.5c-0.2,0.2-0.3,0.4-0.3,0.7c0,0.2,0.1,0.4,0.2,0.6c0.2,0.2,0.4,0.2,0.6,0.2c0.3,0,0.6-0.1,0.8-0.2
		c0.3-0.1,0.4-0.3,0.6-0.5c0.1-0.2,0.2-0.6,0.3-1L9.1,815.9z"/>
	<path class="st1" d="M12.2,819.2l2.1-9.8h1.9l-2.1,9.8H12.2z"/>
	<path class="st1" d="M16,819.2l2.1-9.8H20l-2.1,9.8H16z"/>
	<path class="st1" d="M22.6,814.1l-1.9-0.2c0.2-0.6,0.6-1.1,1.1-1.5c0.5-0.4,1.2-0.5,2.1-0.5c0.9,0,1.6,0.2,2,0.6
		c0.4,0.4,0.7,0.8,0.7,1.4c0,0.2,0,0.4-0.1,0.7c0,0.2-0.2,0.9-0.4,1.9c-0.2,0.9-0.3,1.4-0.3,1.8c0,0.3,0.1,0.6,0.2,1h-1.9
		c-0.1-0.3-0.1-0.5-0.1-0.8c-0.3,0.3-0.6,0.6-1,0.7c-0.4,0.2-0.7,0.3-1.1,0.3c-0.6,0-1.1-0.2-1.5-0.6c-0.4-0.4-0.6-0.9-0.6-1.5
		c0-0.7,0.2-1.2,0.6-1.6c0.4-0.4,1.2-0.7,2.3-0.7c0.9-0.1,1.5-0.2,1.8-0.3c0.1-0.3,0.1-0.5,0.1-0.6c0-0.2-0.1-0.4-0.2-0.5
		c-0.2-0.1-0.4-0.2-0.7-0.2c-0.3,0-0.6,0.1-0.8,0.2C22.8,813.7,22.6,813.9,22.6,814.1z M24.4,815.9c-0.1,0-0.3,0.1-0.5,0.1
		c-1,0.1-1.6,0.3-1.9,0.5c-0.2,0.2-0.3,0.4-0.3,0.7c0,0.2,0.1,0.4,0.2,0.6c0.2,0.2,0.4,0.2,0.6,0.2c0.3,0,0.6-0.1,0.8-0.2
		c0.3-0.1,0.4-0.3,0.6-0.5c0.1-0.2,0.2-0.6,0.3-1L24.4,815.9z"/>
</g>
</svg>
