<?xml version="1.0" encoding="utf-8"?>
<!-- Generator: Adobe Illustrator 19.2.0, SVG Export Plug-In . SVG Version: 6.00 Build 0)  -->
<svg version="1.1" id="Lager_1" xmlns="http://www.w3.org/2000/svg" xmlns:xlink="http://www.w3.org/1999/xlink" x="0px" y="0px"
	 viewBox="0 0 30 35.9" style="enable-background:new 0 0 30 35.9;" xml:space="preserve">
<style type="text/css">
	.st0{fill:#FECE57;stroke:#000000;stroke-width:2;stroke-miterlimit:10;}
	.st1{fill:#FFFFFF;stroke:#000000;stroke-width:2;stroke-miterlimit:10;}
	.st2{opacity:0.6;}
	.st3{fill:#AED07A;stroke:#000000;stroke-width:2;stroke-miterlimit:10;}
	.st4{fill:#94D5F1;stroke:#000000;stroke-width:2;stroke-miterlimit:10;}
	.st5{fill:#C4A9D1;stroke:#000000;stroke-width:2;stroke-miterlimit:10;}
	.st6{fill:#FFFFFF;}
	.st7{fill:#F59A32;}
	.st8{fill:none;stroke:#F59A32;stroke-width:27;stroke-miterlimit:10;}
	.st9{fill:none;stroke:#F59A32;stroke-width:10;stroke-miterlimit:10;}
	.st10{fill:none;stroke:#F59A32;stroke-width:21;stroke-linecap:round;stroke-miterlimit:10;}
	.st11{fill:none;stroke:#F59A32;stroke-width:21;stroke-miterlimit:10;}
	.st12{fill:none;stroke:#121212;stroke-width:3;stroke-miterlimit:10;}
	.st13{fill:#E52325;}
	.st14{fill:#991445;}
	.st15{fill:#EE7123;}
	.st16{fill:#2199C0;}
	.st17{fill:#FBBA0F;}
</style>
<path class="st14" d="M29.8,15c0-8.2-6.6-14.8-14.8-14.8S0.2,6.8,0.2,15c0,7.1,4.9,13,11.6,14.4l3.2,6.2l3.2-6.2
	C24.9,28,29.8,22.1,29.8,15z"/>
<path class="st6" d="M21.7,23c-0.5-1.6-0.9-3.3-1.4-4.9c-0.1-0.3-0.2-0.6-0.3-1c0.5-0.1,0.8-0.6,0.8-1.1V11c0-0.1,0-0.1,0-0.1
	c0-0.1,0-0.2,0-0.2V7.4c0-1.6-1.3-2.9-2.9-2.9h-6c-1.6,0-2.9,1.3-2.9,2.9v3.3c0,0.1,0,0.2,0,0.2c0,0,0,0.1,0,0.1v5.1
	c0,0.5,0.3,1,0.8,1.1c-0.2,0.6-0.3,1.2-0.5,1.8C9,20.3,8.6,21.7,8.2,23c-0.1,0.3,0.1,0.6,0.4,0.7c0,0,0.1,0,0.1,0
	c0.2,0,0.5-0.2,0.5-0.4c0.1-0.4,0.2-0.8,0.4-1.2h10.7c0.1,0.4,0.2,0.8,0.4,1.3c0.1,0.2,0.3,0.4,0.5,0.4c0,0,0.1,0,0.2,0
	C21.7,23.6,21.8,23.3,21.7,23z M19,17.2c0.1,0.3,0.2,0.6,0.3,0.9h-8.4c0.1-0.3,0.2-0.6,0.3-0.9H19z M12.2,15.2c0-0.5,0.4-1,1-1
	s1,0.4,1,1c0,0.5-0.4,1-1,1S12.2,15.8,12.2,15.2z M15.9,15.2c0-0.5,0.4-1,1-1s1,0.4,1,1c0,0.5-0.4,1-1,1S15.9,15.8,15.9,15.2z
	 M10.5,9.8L10.5,9.8V8.7c0-1.6,1.3-2.9,2.9-2.9h3.2c1.6,0,2.9,1.3,2.9,2.9v0.4v0.7v2.6c0,0.6-0.5,1.2-1.2,1.2h-6.7
	c-0.6,0-1.2-0.5-1.2-1.2V9.8z M10,21c0.2-0.6,0.3-1.2,0.5-1.7c0,0,0,0,0-0.1h9c0.2,0.6,0.3,1.2,0.5,1.8H10z"/>
</svg>
