<?xml version="1.0" encoding="utf-8"?>
<!-- Generator: Adobe Illustrator 19.2.0, SVG Export Plug-In . SVG Version: 6.00 Build 0)  -->
<svg version="1.1" id="Lager_1" xmlns="http://www.w3.org/2000/svg" xmlns:xlink="http://www.w3.org/1999/xlink" x="0px" y="0px"
	 viewBox="0 0 30 35.9" style="enable-background:new 0 0 30 35.9;" xml:space="preserve">
<style type="text/css">
	.st0{fill:#FECE57;stroke:#000000;stroke-width:2;stroke-miterlimit:10;}
	.st1{fill:#FFFFFF;stroke:#000000;stroke-width:2;stroke-miterlimit:10;}
	.st2{opacity:0.6;}
	.st3{fill:#AED07A;stroke:#000000;stroke-width:2;stroke-miterlimit:10;}
	.st4{fill:#94D5F1;stroke:#000000;stroke-width:2;stroke-miterlimit:10;}
	.st5{fill:#C4A9D1;stroke:#000000;stroke-width:2;stroke-miterlimit:10;}
	.st6{fill:#FFFFFF;}
	.st7{fill:#F59A32;}
	.st8{fill:none;stroke:#F59A32;stroke-width:27;stroke-miterlimit:10;}
	.st9{fill:none;stroke:#F59A32;stroke-width:10;stroke-miterlimit:10;}
	.st10{fill:none;stroke:#F59A32;stroke-width:21;stroke-linecap:round;stroke-miterlimit:10;}
	.st11{fill:none;stroke:#F59A32;stroke-width:21;stroke-miterlimit:10;}
	.st12{fill:none;stroke:#121212;stroke-width:3;stroke-miterlimit:10;}
	.st13{fill:#E52325;}
	.st14{fill:#991445;}
	.st15{fill:#EE7123;}
	.st16{fill:#2199C0;}
	.st17{fill:#FBBA0F;}
</style>
<path class="st14" d="M29.8,15c0-8.2-6.6-14.8-14.8-14.8S0.2,6.8,0.2,15c0,7.1,4.9,13,11.6,14.4l3.2,6.2l3.2-6.2
	C24.9,28,29.8,22.1,29.8,15z"/>
<path class="st6" d="M20,7.1H10c-0.6,0-1.1,0.5-1.1,1.1v2.4c0,0.6,0.5,1.1,1,1.1c0,0,0.1,0,0.1,0H20c0,0,0.1,0,0.1,0
	c0.6-0.1,1-0.5,1-1.1V8.3C21.2,7.6,20.7,7.1,20,7.1z"/>
<path class="st6" d="M9.7,12.4C9.6,12.4,9.6,12.4,9.7,12.4l-0.1,9.4c0,0.6,0.5,1.1,1.1,1.1h8.6c0.6,0,1.1-0.5,1.1-1.1v-9.4
	c0,0-0.1,0-0.1,0H9.7z M17.3,15.2c-0.5,1-0.8,1.7-1,2.4c-0.2,0.6-0.3,1.4-0.3,2.2c0,0.5-0.1,0.9-0.2,1.1c-0.1,0.2-0.3,0.3-0.6,0.3
	c-0.2,0-0.4-0.1-0.6-0.2c-0.1-0.1-0.2-0.3-0.2-0.5c0-0.2,0.1-0.5,0.2-0.8c0.1-0.4,0.4-0.9,0.8-1.6l1.2-2.2h-2c-0.5,0-0.9,0-1,0.1
	c-0.2,0.1-0.3,0.2-0.5,0.5c-0.1,0.2-0.2,0.3-0.3,0.3c-0.1,0-0.2-0.1-0.2-0.2c0-0.1,0.1-0.5,0.2-1.1c0.1-0.6,0.2-1,0.3-1.1
	c0.1-0.1,0.1-0.2,0.2-0.2c0.1,0,0.1,0.1,0.2,0.2c0,0.1,0.1,0.1,0.2,0.2c0.1,0,0.4,0.1,0.8,0.1c0.5,0,0.7,0,0.8,0h2.3
	C17.5,14.7,17.4,14.9,17.3,15.2z"/>
</svg>
