<?xml version="1.0" encoding="utf-8"?>
<!-- Generator: Adobe Illustrator 19.2.0, SVG Export Plug-In . SVG Version: 6.00 Build 0)  -->
<svg version="1.1" id="Lager_1" xmlns="http://www.w3.org/2000/svg" xmlns:xlink="http://www.w3.org/1999/xlink" x="0px" y="0px"
	 viewBox="0 0 30 35.9" style="enable-background:new 0 0 30 35.9;" xml:space="preserve">
<style type="text/css">
	.st0{fill:#FECE57;stroke:#000000;stroke-width:2;stroke-miterlimit:10;}
	.st1{fill:#FFFFFF;stroke:#000000;stroke-width:2;stroke-miterlimit:10;}
	.st2{opacity:0.6;}
	.st3{fill:#AED07A;stroke:#000000;stroke-width:2;stroke-miterlimit:10;}
	.st4{fill:#94D5F1;stroke:#000000;stroke-width:2;stroke-miterlimit:10;}
	.st5{fill:#C4A9D1;stroke:#000000;stroke-width:2;stroke-miterlimit:10;}
	.st6{fill:#FFFFFF;}
	.st7{fill:#F59A32;}
	.st8{fill:none;stroke:#F59A32;stroke-width:27;stroke-miterlimit:10;}
	.st9{fill:none;stroke:#F59A32;stroke-width:10;stroke-miterlimit:10;}
	.st10{fill:none;stroke:#F59A32;stroke-width:21;stroke-linecap:round;stroke-miterlimit:10;}
	.st11{fill:none;stroke:#F59A32;stroke-width:21;stroke-miterlimit:10;}
	.st12{fill:none;stroke:#121212;stroke-width:3;stroke-miterlimit:10;}
	.st13{fill:#E52325;}
	.st14{fill:#991445;}
	.st15{fill:#EE7123;}
	.st16{fill:#2199C0;}
	.st17{fill:#FBBA0F;}
</style>
<path class="st15" d="M29.8,15c0-8.2-6.6-14.8-14.8-14.8S0.2,6.8,0.2,15c0,7.1,4.9,13,11.6,14.4l3.2,6.2l3.2-6.2
	C24.9,28,29.8,22.1,29.8,15z"/>
<path class="st6" d="M23.5,18.4l-0.4-3.3c-0.1-0.7-0.7-1.3-1.5-1.3h-0.1l-0.6-4c-0.2-1.1-1.2-2-2.3-2h-7.4c-1.1,0-2.1,0.9-2.3,2
	l-0.5,4h0c-0.7,0-1.4,0.6-1.5,1.3l-0.4,3.3c-0.1,0.7,0.4,1.3,1.2,1.3h1.1v1.1c0,0.7,0.6,1.3,1.3,1.3h0.1c0.7,0,1.3-0.6,1.3-1.3v-1.1
	h7v1.1c0,0.7,0.6,1.3,1.3,1.3h0.1c0.7,0,1.3-0.6,1.3-1.3v-1.1h1.1C23,19.7,23.5,19.2,23.5,18.4z M13.7,13.8c0.5-0.9,1.4-1.5,2.5-1.5
	s2,0.6,2.5,1.5H13.7z M10.5,10c0-0.3,0.4-0.6,0.7-0.6h7.4c0.3,0,0.7,0.3,0.7,0.6l0.6,3.7h-0.7c-0.5-1.2-1.7-2-3.1-2s-2.6,0.8-3.1,2
	h-3L10.5,10z"/>
</svg>
